<svg xmlns="http://www.w3.org/2000/svg" width="54.826" height="67.193" viewBox="0 0 54.826 67.193">
  <path id="Tracé_115" data-name="Tracé 115" d="M285.251,638.249v67.173h29.318a39.553,39.553,0,0,0,13.837-2.126,17.688,17.688,0,0,0,8.661-6.383,18.5,18.5,0,0,0,3-10.733,15.228,15.228,0,0,0-1.549-6.668,16.186,16.186,0,0,0-4.045-5.181,17.21,17.21,0,0,0-5.679-3.216,15.065,15.065,0,0,0,5.065-3.1,14.876,14.876,0,0,0,3.469-4.912,15.472,15.472,0,0,0,1.289-6.236,17.2,17.2,0,0,0-3.159-10.523,18.227,18.227,0,0,0-8.854-6.108,41.873,41.873,0,0,0-13.677-1.984ZM313.893,677.5a24.874,24.874,0,0,1,6.467.688,7.823,7.823,0,0,1,4.176,2.446,7.483,7.483,0,0,1,1.5,4.88,7.667,7.667,0,0,1-1.5,4.972,7.88,7.88,0,0,1-4.176,2.5,24.885,24.885,0,0,1-6.467.688l-15.142-.049V650.05h15.142a24.99,24.99,0,0,1,6.467.69,7.789,7.789,0,0,1,4.176,2.447,7.475,7.475,0,0,1,1.5,4.877,7.674,7.674,0,0,1-1.5,4.975,7.88,7.88,0,0,1-4.176,2.5,25,25,0,0,1-6.467.688l-5.706-.019v11.3Z" transform="translate(-285.251 -638.242)"/>
</svg>
